<?xml version="1.0" encoding="UTF-8"?>
<svg id="Capa_1" xmlns="http://www.w3.org/2000/svg" version="1.1" viewBox="0 0 1280 1177">
  <!-- Generator: Adobe Illustrator 30.2.1, SVG Export Plug-In . SVG Version: 2.1.1 Build 1)  -->
  <defs>
    <style>
      .st0 {
        fill: #fff;
      }

      .st1 {
        fill: #454444;
      }

      .st2 {
        fill: #fffefd;
      }
    </style>
  </defs>
  <g>
    <path d="M970.49,499.48c8.53,2.23,14.6-3.17,19.87-9.11,5.87-6.62,29.5-26.94,36.56-30.59,12.14-6.27,24.43-10.82,37.12-15.99,6.07-2.47,13.46-3.37,18.94,1.45,1.09.96-1.84,4.04-2.64,5.32-3.92,6.34-11.29,10.28-16.83,15.04-8.03,6.9-14.85,14.42-24.18,19.85-5.2,3.03-9.58,6.78-14.31,10.69-6.52,5.38-15.12,9.87-18.32,18.3-1.69,4.46-1.5,8.97-6.53,11.84-39.56,22.61-26.04,10.03-62.75,41.09-5.29,4.47-7.06,12.27-9.98,18.05l-3.08,6.1c-8.13,16.1-11.02,33.73-14.67,43.45l-7.58,20.2c-6.67,8.28-7.15,18.4-5.66,29.36.9,6.61-7.87,8.32-11.04,12.86-6.2,8.84-8.48,19.95-11.84,30-3.04,9.09-5.07,26.67-5.66,36.71-.18,3.06-1.59,3.76-2.73,5.79-3.46,6.13-6.87,11.81-15.44,10.95l-8.8,2.5c-.99-5.81-.84-11.59-4.58-15.55-9.13-9.66-11.6-16.96-7.13-31.26,4.21-13.48,4.42-8.89,6.19-20.39l2.95-19.13c.37-2.43,2.75-6.01,4.53-7.84,8.01-8.26,10.89-17.56,14.15-29.08,2.29,18.26-11.37,26.65-15.67,36.08s-2.81,20.48-6.2,30.11l-4.22,12c-3.96,11.24-1.56,21.32,8.04,29.23,3,2.47,2.86,9.39,4.26,13.62l6.65-2.02c5.41-1.04,9.96-2.43,12.02-8.25,1.09-3.07,3.12-7.72,3.49-11.18,2.18-20.16,6.97-38.84,14.44-57.68,5.34-13.48,15.01-8.21,15.6-24.69.68-18.96,8.04-28.04,12.32-43.98,5.7-21.23,7.39-25.53,15.67-45.4,4.47-10.73,10.41-19.87,16.74-29.43,2.99-4.52,2.88-9.68,7.69-13.76,6.14-5.21,11.81-10.62,18.76-15.33,2.29-1.55,4.19-5.57,6.51-7.16l22.89-15.78v-.03c7.45-5.14,13.8-11.36,19.79-17.59,5.09-5.29,8.99-11.33,14.56-16.39s11.33-10.5,17.92-14.13l12.28-6.75c3.24-1.78,6.95-2.67,9.54-5.68-7.69,2.03-15.97,3.76-22.08,8.35l-33.67,25.28c-6.5,4.88-12.58,9.38-19.78,13.29-3.31,1.8-6.27,4.27-9.39,6.31-11.6,7.58-22.84,14.77-33.64,23.57-9.36,7.63-19.09,13.44-29.43,19.56-5.61,3.32-10.45,6.42-17.31,7.79-4.4.88-9.73,5.07-14.06,5.36-12.02.79-21.3,4.86-31.06,11.36l-13.78,9.18c.37-.25-21.49,3.99-15.56,13.96l11.59-1.7,25.89-.41,7.29-1.74c-4.75,4.71-11.73,3.91-18.17,3.82-9.13-.13-17.86.59-26.92,1.96-1.41.21-3.53-3.15-3.35-4.53,1.26-9.6,14.44-12.55,16.23-13.49,23.56-12.46,20.99-15.32,49.63-21.56,6.29-1.37,12.48-4.19,18.89-6.13-.26.08,22.55-13.14,22.42-15.01,5.29-9.84,7.06-21.05,7.03-32.07-.03-10.37,1.62-17.6,4.66-27.52,1.8-5.88-2.66-10.49-3.31-17.04,8.98,8.56,3.5,20.54,2.55,27.1l-2.51,17.45c-1.62,11.27,1.64,19.68-6.56,32.04,5.43-2.64,9.21-6.18,13.7-9.45l27.2-19.79c-3.59.45-7.02,1.08-9.73.49M962.71,543.86l22.73-12.33,13.78-7.41c3.88-2.09,3.39-7.42,5.03-10.98,3.86-8.35,12.22-13.17,19.12-18.83,5.7-4.68,11.08-8.9,17.27-12.82,14.04-8.88,19.07-17.4,24.39-20.44,6.39-3.65,11.39-7.49,14.82-14.5-8.02-3.69-3.8.77-14.36,5.02-3.38,1.36-6.09,3.01-9.15,4.75-18.73,10.61-25.6,16.88-38.21,33.9-2.29,3.09-6.91,5.47-9.71,8.21-7.83,7.67-15.9,14.29-25.5,19.54-6.2,3.39-9.72,8.65-15.08,13.01l-14.84,12.08c-5.14,4.18-9.32,8.93-9.91,16.05,6.38-5.4,12.28-11.24,19.6-15.22l.02-.03ZM1008.01,481.41l21.42-16.03,11.7-9.28c-16,4.9-32.68,20.08-44.2,31.63,4.46-1.06,7.32-3.5,11.08-6.32Z"/>
    <path d="M100.62,821.52l-11.25-1.91c-5.01-.85-8.05-5.51-8.9-9.56-1.21-5.75.4-9.94,5.04-13.79,5.31-4.4,12.65-10.7,20.25-8.89,5.56,1.33,5.09,9.68,4.2,15.42,6.01-1.32,11.82-2.58,17.91-3.06,13.57-1.07,25.7-5.33,38.34-9.76,4.53-1.59,9.53-2.3,14.26-3.67,20.41-5.93,40.46-10.67,61.39-14.31,14.39-2.5,19.55-5.9,34.9-8.4l8.14-7.63c4.68-4.39,7.72-9.55,12.06-14.08l23.92-24.92c15.59-16.24,31.97-28.32,45.1-43.9,5.29-6.28,9.02-13.29,13.95-20.63-4.62-.55-9.12-1.29-13.44-.99-41.34,2.87-40.56,14.29-83.53,20.51l-32.98,4.77c-8.22,1.19-16.57.54-25-.09-10.83-.8-23.86-8.2-35.17-12.39-5.84-2.17-11.38-3.98-15.53-8.63l31.47,13.69c8.85,3.85,17.47,5.89,27.2,6.15,4.05.11,8.42.8,12.47.2l28.69-4.24c12.24-1.81,24.26-3.54,35.97-7.58l29.6-10.21c13.78-4.75,28.46-4.33,43.85-2.8-5.82,8.55-10.29,16.7-16.47,24.26-13.38,16.35-36.37,32.77-50.29,49.47-4.03,4.83-8.16,9.16-12.92,13.3-4.47,3.9-7.05,8.76-11.03,12.92l-13.97,14.59-12.11,2.39-27.47,6.73-18.96,3.99-10.27,1.94c-5.79,1.09-11.57,2.83-17.34,4.4l-17.4,4.75c-13.1,3.58-25.65,9.56-39.26,11.25-9.56,1.19-17.85,1.89-27.56,5.35-2.24-2.72,3.58-12.01-3.61-16.57-9.32.46-27.63,11.37-21.93,22.84,3.36,6.76,14.55,7.06,20.8,8.14s11.61,2.09,17.91.17l6.83-2.08c22.53-6.86,24.69-10.1,49.39-15.77,8.54-1.96,16.35-4.77,25.34-4.6-23.63,2.73-55.13,16.82-64.51,19.47l-17.9,5.06c-3.64,1.03-7.28.99-10.86.36l-9.34-1.65h.02Z"/>
    <path d="M526.13,721.71c6.78.58,23.46,1.26,28.82-1.93,7.45-4.43,14.48-8.08,22.17-11.77l23.12-11.09c.71-.34,12.81-10.61,7.24-19.68-1.48-2.41-4.77-3.46-8.02-4.72-18.7-7.21-21.39-.79-30.36-1.84-6.4-.75-12.69-1.37-19.09-1.83l-8.11-.58c-8.29-.59-23.93-.2-31.78,1.1l-13.72,2.27c-23.88,3.96-47.2,7.58-71.37,9.45-6.81.53-13.25,1.3-19.87,2.43-9.05,1.55-16.33,7.77-24.55,10.89-4.38,1.66-9.23,1.19-11.42,6.83-2.59,6.66-6.38,13.38-9.71,19.99-3,5.95-6.19,9.86-11.01,14.38-4.3,4.03-9.89,12.36-14.5,16.89.55-6.55,5.35-9.5,9.1-13.47l5.83-6.16c4.45-4.7,7.41-9.8,10.39-15.54l5.2-10.04c1.98-3.81,2.91-8.77,6.62-11.22l15.48-10.24c2.98,5.2,8.48-3.49,19.22-4.52l19.23-1.84,22.05-1.97c20.42-1.83,39.77-5.64,59.92-9.3,3.64-.66,8.26-.51,11.92-.93l9.25-1.05c2.94-.33,6.69-.26,9.7.02l11.15,1.03,11.97,1.1c23.5,2.16,18.95-3.66,38.27,2.17,4.18,1.26,7.35,2.92,9.84,6.21,3.56,4.7,2.78,8.68.08,13.13-3.48,5.74-7.47,9.38-13.79,11.76-4.73,1.79-9.5,4.5-14.14,6.7l-14.34,6.8c-4.76,2.26-9.69,7.97-15.22,8.41-9.9.8-19.74.69-29.55.02-7.18-.49-13.23.79-20.47,1l-23.52.66c-12.49.35-70.94,12.46-85.15,18.79l-8.98.06c-9.11,3.41-17.93,6.4-27.26,8.89l-9.44,2.53c-5.48,1.47-9.89,2.32-15.93,3.39.52-3.33,1.02-4.79,2.18-7.11l.85,4.42c8.8-1.68,17.59-3.47,26.4-6.22l20.73-6.49,11.05-.85,13.55-5.32,18.68-4.33,30.08-6.03c7.76-1.56,15.34-3.35,23.44-3.61l24.31-.77c8.26-.26,15.31-1.55,23.49-.85l-.03-.02Z"/>
    <path d="M890.12,605.12c-6.16-6.34-15.04-6.15-23.23-5.52-17.46,1.34-22.7,1.58-40.32,5.19l-43.29,8.87c-15.78,3.23-30.93,5.8-46.85,7.98l-24.43,3.34c-25.41,3.48-34.97,9.68-59.23,13.95,10.54-5.14,21.74-7.35,33.13-10.32,26.75-6.99,32.16-5.28,55.13-9.83l48.3-9.55,14.42-2.65,29.54-5.03,20.73-2.28,12.92-.99,13.7-.81,6.09-4.86c2.71-2.16,4.09-4.79,5.87-8.01,3.04-5.5,8.84-9.38,13.37-13.67l11.69-11.08c-8.45-7.51-18.23,8.63-22.18,12.56-4.95,4.93-11.2,8.58-17.52,11.87,2.33-3.87,6.3-5.05,9.92-7.52,3.92-2.68,7.08-6.82,10-10.72,4.84-6.47,14.71-14.29,23.31-6.83-5.52,5.59-10.23,10.62-15.85,15.08-6.01,4.77-10.56,9.54-13.12,16.95l-8.73,6.94,10.8,4.71c5.4,2.36,6.01,11.1,3.42,15.54-4.29,7.37-10.31,11.32-17.19,15.14l-11.2,6.21c-5.36,2.97-6.22,22.52-12.05,19.72l7.03-15.58c.33-.73,2.16-2.44,1.6-2.48s-2.43-.21-3.05.01l-10.72,3.8c-5.89,2.09-11.42,3.36-17.54,4.51l-54.53,10.21-34.21,5.87c-7.56,1.3-24.43-1.52-15.91-1.54,6.48-.01,7.19,1.62,14.43.32l21.2-3.83,28.41-4.72,44.02-9.12c16.53-3.42,49.48-13.74,58.22-28.71,3.05-5.22-1.17-15.37-3.19-14.47l-2.94,1.32.03.03Z"/>
    <path d="M336.13,771.8c3.15-1.59,7.39-2.57,11.53-3.07,10.67-1.28,20.72-3.02,31.36-5.81,12.98-3.4,25.46-7.15,38.96-7.89,7.99-.44,15.5-3.2,23.17-4.5l17.3-2.92c6.88-1.16,14.32-1.89,21.47-2.39l13.06-.92,17.94-1.01,17.32-.97c-2.8,1.39-5.8,1.82-9.22,2l-13.03.68-12.99.71-12.12.91c-6.92.52-13.66,1.29-20.5,2.66l-30.23,6.03-22.28,2.56-45.58,10.28c-8.25,1.86-16.58,2.44-26.17,3.66h0Z"/>
    <path d="M803.18,484.63c-6.77,1.13-9.72.05-11.94-4.6,8.54,7.89,28.23-1.72,39.02-4.93,7.09-2.11,14.08-3.77,21.39-5.53,9.6-2.3,14.25,1.13,27.75-9.14,4.21-3.2,7.21-5,12.69-5.52,4.9-.46,9.85-3.39,14.55-4.98l16.72-5.66c3.7-1.25,7.56-1.34,10.65,0-6.35,1.3-11.87,2.87-17.85,4.92l-17.15,5.9c-4.22,1.45-10.32,1.57-13.77,4.11-10.59,7.8-13.12,9.66-25.85,11.25-22.77,2.85-36.09,10.83-56.21,14.19h0Z"/>
    <path d="M734.19,689.7l19.04-5.53c19.72-5.73,15.3-2.08,35.78-3.44l15.04-1,19.03-.84,10.36-5.96c-.51-1.22-3.04-3.01-4.58-2.98-11.54.22-22.47-.42-33.85.46l-25.92,2.01c-8.42.65-16.42-1.21-32.48.09-7.63.62-14.72.58-22.74.41-2.14-.05-5.92-1.88-7.93-2.77l-6.92-3.05c8.14-.8,5.01,2.87,15.85,4.29,3.93.52,7.31.05,11.22-.07l21.79-.71c5.02-.16,9.23-.55,14.27.03,4.67.54,9.94.52,14.56.02l20.64-2.24c9.06-.98,18.27-.41,27.71-.34,4.17.03,8.84,2.27,12.32,4.59-8.55,7.04-18.08,8.63-28.45,8.3-3.92-.13-8.14.65-12.01.71l-28.03.44c-11.13.17-22.86,7.65-34.72,7.56l.02.02Z"/>
    <path d="M425.93,645.1c-6.04,6.46-13.71,3.3-18.08,17.32,8.19-.01,15.26-2.27,23.22-3.77,15.73-2.97,25.07.52,38.27-3.77,1-.33,2.94-2.36,2.61-3.27-.7-1.93-3.1-7.91-5.74-8.66l-7.49-2.13c3.88-1.41,8.39-.21,11.08,2.91,2.31,2.69,4.9,9.11,1.57,11.95-14.32,5.2-26.66,2.13-41.31,4.98l-19.27,3.74c-3.22.63-6.67.76-9.79.63,10.31-6.69,2.8-9.32,14.37-15.4,3.52-1.85,6.46-3.31,10.56-4.53h0Z"/>
    <path d="M828.92,618.27c-18.33,1-24.88,5.59-41.93,8.35l-45.17,7.3c3.13-3.15,7.85-2.32,12.08-3.11l31.09-5.75c19.12-3.53,24.52-6.72,42.83-8.52l17.6-1.73-3.29,5.82-.92-3.04-12.28.67h-.01Z"/>
    <path d="M531.02,742.9c-.65-2.58,22.18-2.85,28.58-4.48l10.43-2.65c7.06-1.79,13.11-4.19,20.22-6.83-8.71,7.28-20.01,10.14-31.22,11.21l-11.01,1.05-17,1.7Z"/>
    <path d="M539.87,651.07c-5.86,3.02-12.11,2.62-18.89,3.22l-10.99.97c-4.92.43-19.07,2.97-20.05-3.98,4.4,3.79,13.53,3.03,19.91,2.47l10.19-.89,19.83-1.78h0Z"/>
    <path d="M362.61,630.28c-6.36.18-11.81,1.61-17.7,1.43,15.4-3.09,30.89-4.56,47.14-3.32-3.23.49-6.62,1.25-10.16,1.35l-19.28.55h0Z"/>
    <path d="M644.05,642.85l-23.15,6.2c-.74.2-2.76.27-3.18-.11-.57-.51-1-1.67-1.35-2.59,8.97-.92,17.7-1.91,26.17-4.77,2.74-.93,5.22-1.58,7.47-1.47l-5.97,2.75h.01Z"/>
    <path d="M567.95,649.6c-6.41.44-12.31.54-18.03-.04l13.99-1.31c5.87-.55,10.47-.65,16.58-2.08.27.62-2.09,2.7-3.29,2.79l-9.24.64h-.01Z"/>
    <path d="M450.38,638.42l-22.45,5.79c3.94-3.99,9.3-3.34,14.18-5.16,4.57-1.71,8.89-3.64,13.91-.2l-5.64-.43h0Z"/>
    <path d="M816.15,631.62l14.73-5.91c3.18-1.28,5.55-4.38,9.68-4.36-7.2,4.82-14.45,10.12-24.4,10.27h0Z"/>
    <path d="M249.53,793.28l-8.76.6c.93-.88,2.28-1.78,3.2-1.81l17.92-.71c-3.56,1.29-7.59,1.6-12.36,1.92h0Z"/>
    <path d="M618.29,713.4c-4.36.97,16.98-12.52,15.88-9.19l-15.88,9.19Z"/>
    <path d="M615.24,715.79c-3.91,2.96-7.65,6.18-12.36,5.97l11.77-7.49c.29-.18,2.66-.05,2.38.16l-1.79,1.36h0Z"/>
    <path d="M293.02,783.39c-5.55,2.49-10.18,3.69-16.3,4.49-3.6-.31,19.04-6.93,16.3-4.49Z"/>
    <path class="st0" d="M1008.01,481.41c-3.77,2.82-6.62,5.26-11.08,6.32,11.52-11.56,28.2-26.74,44.2-31.63l-11.7,9.28-21.42,16.03h0Z"/>
  </g>
  <g id="Objeto_generativo">
    <g>
      <path class="st2" d="M453.52,663.01c-.62,7.23-40.09,3.65-57.26,9.2,8.84-11.05,21.94-13.87,35.04-17.26,7.65-1.98,17.27,2.47,22.22,8.06Z"/>
      <path class="st1" d="M158.28,672.21c3.03-5.5,6.67-13.95,13.08-14.52-11.18,1,53.5-12.72,55.75-13.24l.11-.02,80.27-13.72c31.69-5.42,61.73-8.78,93.64-3.54,6.24,1.02,12.01.86,13.04,8.79.11.83.9,1.4,1.71,1.2,24.64-6.05,13.91-2.73,26.64-1.17,7.68.94,13.77,4.23,15.39,12.99.11.62.61,1.1,1.24,1.14,3.75.26,7.23-1.92,11.18-2.56,2.55-.41,5.04,2.97,7.97,2.92,37.71-.69,60.75-7.04,101.87-7.13,56.26-.13,57.7-14.4,101.87-21.14,30.21-4.61,58.98-9.51,88.74-15.91,31.38-6.75,62.02-11.23,94.09-12.72.4-.02.77-.21,1.02-.53l6.11-7.79c.91-1.16-.38-2.75-1.7-2.1l-14.03,6.89c-.16.08-.33.12-.5.14l-37.46,2.91c-3.45.27-6.31-.02-8.22-2.26-5.12-6.02,2.18-15.26,11.33-18.79,23.22-8.97,21.85-15.6,46.34-21.08,16.88-3.77,34.95-8.91,47.07-21.91,8.26-8.86,6.76-24.18,8.57-35.32l4.56-28.09c.66-4.07-3.61-8.55-3.2-13.06.2-2.16,3.88-1.49,3.87-3.91,0-1.26-1.46-2.58-2.69-4.16-2-2.58-52.15,14.03-53.67,14.9-9.13,5.26-16.21,11.25-27.85,12.02-22.53,1.49-45.99,15.52-63.86,14.49-6.73-.39-9.31-6.17-13.67-10.38-4-3.87-28.55-2.01-25.45-9.92,8.44-21.56,14.74-12.62,25.98-18.27,45.98-23.15,68.53-10.57,109.83-33.84,18.98-10.7,37.5-20.36,56.99-29.77l59.85-28.89s.07-.03.1-.04l58.82-22.77c17.23-6.67,34.27-12.01,52.54-12.81,23.5-1.02-7.19,28.68-17.95,33.84-26.13,12.53-32.23,19.77-52.99,37.45-9.86,8.39-12.87,10.96-29.46,20.16-22.76,12.62-39.22,35.17-44.26,60.7-1.21,6.12-1.18,6.03-1.17,6.02-.07.54.8,15.46,3.08,18.08,2.49,2.85,7.05,2.92,9.4-.05s2.18-5.19,5.28-8.46c24.29-25.58,45.98-40.64,80.16-49.63,4.47-1.18,14.1,2.07,12.9,7.04-2.33,9.66-12.71,14.76-19.36,21.04-11.87,11.21-24.23,20.03-37.66,29.86-7.02,5.14-15.12,9.84-19.03,17.86-2.28,4.69-2,10.12-7.03,12.9l-34.01,18.79c-39.79,21.99-41.85,46.04-54.92,82.62l-12.86,35.99c-2.84,7.95-1.2,16.63-4.64,24.54-2.22,5.08-8.65,7.15-11.07,12-8.94,17.9-13.56,37.88-14.88,58.28-1.1,17.11-14.77,27.62-31.17,25.49-.69-.09-1.18-.7-1.19-1.4-.04-7.13-2.66-12.43-6.81-17-16.81-18.55,1.76-34.49,3.04-62.6.92-20.3,16.97-17.88,20.01-45.89.36-3.29,3.9-5.85,3.11-9.56-.13-.63-.72-1.04-1.36-1.05-4.4-.03-8.17,1.96-12.62,2.87l-61.25,12.47c-1.65.34-1.38,2.77.3,2.74l37.95-.61c7.21-.11,14.13,1.54,19.35,6.89.55.56.54,1.44-.01,1.99-15.96,15.96-60.46,8-77.96,12.59-14.15,3.71-26.88,6.76-41.48,8.56l-82.16,10.14c-11.79,1.45-20.38,13.26-30.82,17.21-5.43,2.05-9.97,2.72-14.71,6.74-8.72,7.42-19.73,12.24-31.67,13.18-17.17,1.35-33.63,4.07-50.88,4.55-27.47.77-53.03,4.86-79.4,10.33-15.99,3.31-32.25,3.81-48.82,8.65-.82.24-103.42,20.48-108.46,24.54-.29.23-.69.29-1.05.18l-5.77-1.73c-1.74-.52-3.47,2.5-5.42,3.84-8.81,6.02-18.96,2.25-28.49,2.92-24.72,1.72-49.34,8.47-73.76,16.66-33.26,11.16-42.14,20.21-77.33,9.38-6.01-1.85-7.91-8.09-8.5-12.15-1.8-12.53,13.86-23.07,23.21-24.31,4.1-.54,7.75.56,9.75,3.25,1.89,2.54,2.23,5.39,2.59,9.42.07.76.76,1.34,1.52,1.27,40.53-3.79,61.21-16.12,105.81-24.68,19.89-3.82,38.55-8.05,57.92-13.87.25-.07.47-.22.64-.41,23.41-26.02,46.22-50.49,72.37-73.16,9.93-8.61,18.25-18.22,24.18-30.4.42-.86-.16-1.89-1.12-1.98-16.79-1.53-32.3,2.09-47.5,7.89-30.5,11.65-36.63,10.56-69.98,15.67-34.64,5.31-69.31,24.66-78.9-3.28M811.48,621.12c-21.14-4.23-96.88,10.92-114.04,19.67-1.01.52-1.03,1.95-.02,2.47,15.65,7.92,105.94-7.38,114.92-20.05.56-.78.07-1.9-.87-2.09h.01ZM451.12,649.91c.37-.5.28-1.23-.16-1.68-5.09-5.3-14.28-9.35-21.65-7.44-11.58,3-23.16,5.55-31.8,13.74-1.02.97-.15,2.65,1.23,2.37,17.63-3.67,48.41-1.65,52.37-6.98h0ZM455.28,721.02c23.9-2.79,46.83-1.68,70.61-2.17,4.03-.08,8-.35,11.25-2.33,13.98-8.52,28.06-14.69,42.67-22.15,5.25-2.68,13-10.73,7.6-16.86-4.96-5.64-16.66-8.01-23.33-6.8-20.08,3.64-41.1-5.57-77.62.84-31.29,5.49-61.81,9.53-93.41,12.31-9.16.81-15.32,6.07-23.28,9.38l-15.33,6.37c-.3.12-.54.35-.7.63-5.75,10.72-9.81,21.79-17.49,30.92-4.64,5.52-10.47,10.08-14.14,16.45-.61,1.05.34,2.32,1.52,2.05l38.18-8.94c7.56-1.77,13.78-2.73,21.39-4.96,23.65-6.93,47.55-11.87,72.08-14.73h0Z"/>
    </g>
  </g>
</svg>